<svg preserveAspectRatio="none" overflow="visible" style="display: block;" width="22" height="22" viewBox="0 0 22 22" fill="none" xmlns="http://www.w3.org/2000/svg">
<g id="arrow-up-right">
<path id="Vector" d="M18.3334 4.58333V13.75C18.3334 14.256 17.9236 14.6667 17.4167 14.6667C16.9098 14.6667 16.5 14.256 16.5 13.75V6.79622L6.14815 17.1481C5.9694 17.3269 5.7347 17.4167 5.50003 17.4167C5.26537 17.4167 5.03067 17.3269 4.85192 17.1481C4.49351 16.7897 4.49351 16.2103 4.85192 15.8519L15.2038 5.5H8.25003C7.74312 5.5 7.33337 5.08933 7.33337 4.58333C7.33337 4.07733 7.74312 3.66667 8.25003 3.66667H17.4167C17.5359 3.66667 17.6551 3.69133 17.7669 3.73716C17.9915 3.82975 18.1703 4.00851 18.2629 4.23309C18.3096 4.34493 18.3334 4.46417 18.3334 4.58333Z" fill="#124A0A"/>
</g>
</svg>
